<?xml version="1.0" encoding="utf-8"?>
<svg xmlns="http://www.w3.org/2000/svg" viewBox="0 0 500 500">
  <defs>
    <linearGradient id="linearGradient4671">
      <stop style="stop-color:#ffd43b;stop-opacity:1;" offset="0" id="stop4673"/>
      <stop style="stop-color:#ffe873;stop-opacity:1" offset="1" id="stop4675"/>
    </linearGradient>
    <linearGradient id="linearGradient4689">
      <stop style="stop-color:#5a9fd4;stop-opacity:1;" offset="0" id="stop4691"/>
      <stop style="stop-color:#306998;stop-opacity:1;" offset="1" id="stop4693"/>
    </linearGradient>
    <linearGradient id="linearGradient1475" gradientUnits="userSpaceOnUse" gradientTransform="matrix(2.530288, 0, 0, 2.526818, -67.430859, -52.064185)" x1="150.96111" y1="192.35176" x2="112.03144" y2="137.27299" href="#linearGradient4671"/>
    <linearGradient id="linearGradient1478" gradientUnits="userSpaceOnUse" gradientTransform="matrix(2.530288, 0, 0, 2.526818, -67.430859, -52.064185)" x1="26.648937" y1="20.603781" x2="135.66525" y2="114.39767" href="#linearGradient4689"/>
  </defs>
  <path style="fill:url(#linearGradient1478);fill-opacity:1" d="M 247.026 0.004 C 226.408 0.097 206.72 1.837 189.394 4.871 C 138.36 13.786 129.094 32.454 129.094 66.875 L 129.094 112.337 L 249.694 112.337 L 249.694 127.49 L 129.094 127.49 L 83.831 127.49 C 48.783 127.49 18.094 148.328 8.49 187.968 C -2.584 233.404 -3.074 261.756 8.49 309.199 C 17.063 344.513 37.538 369.676 72.586 369.676 L 114.053 369.676 L 114.053 315.178 C 114.053 275.806 148.494 241.073 189.394 241.073 L 309.854 241.073 C 343.386 241.073 370.158 213.766 370.158 180.458 L 370.158 66.875 C 370.158 34.549 342.585 10.263 309.854 4.871 C 289.136 1.459 267.64 -0.089 247.026 0.004 Z M 181.806 36.569 C 194.261 36.569 204.435 46.792 204.435 59.369 C 204.435 71.897 194.261 82.027 181.806 82.027 C 169.302 82.027 159.172 71.897 159.172 59.369 C 159.172 46.792 169.302 36.569 181.806 36.569 Z" id="path1948"/>
  <path style="fill:url(#linearGradient1475);fill-opacity:1" d="M 385.195 127.49 L 385.195 180.458 C 385.195 221.525 349.994 256.088 309.854 256.088 L 189.394 256.088 C 156.397 256.088 129.094 284.023 129.094 316.704 L 129.094 430.292 C 129.094 462.617 157.512 481.631 189.394 490.907 C 227.568 502.007 264.177 504.013 309.854 490.907 C 340.215 482.21 370.158 464.712 370.158 430.292 L 370.158 384.829 L 249.694 384.829 L 249.694 369.676 L 370.158 369.676 L 430.458 369.676 C 465.506 369.676 478.568 345.492 490.757 309.199 C 503.347 271.833 502.812 235.899 490.757 187.968 C 482.094 153.453 465.551 127.49 430.458 127.49 L 385.195 127.49 Z M 317.446 415.134 C 329.946 415.134 340.076 425.269 340.076 437.797 C 340.076 450.374 329.946 460.597 317.446 460.597 C 304.987 460.597 294.817 450.374 294.817 437.797 C 294.817 425.269 304.987 415.134 317.446 415.134 Z" id="path1950"/>
</svg>