<?xml version="1.0" encoding="iso-8859-1"?>
<!-- Uploaded to: SVG Repo, www.svgrepo.com, Generator: SVG Repo Mixer Tools -->
<svg fill="#0A0A0A" height="800px" width="800px" version="1.1" id="Layer_1" xmlns="http://www.w3.org/2000/svg" xmlns:xlink="http://www.w3.org/1999/xlink"
	 viewBox="0 0 512 512" xml:space="preserve">
<g>
	<g>
		<path d="M457.697,324.848l-23.273,4.231l-93.091,16.924v26.36c0,12.853-10.418,23.273-23.273,23.273H193.939
			c-12.851,0-23.273-10.42-23.273-23.273v-26.36l-93.091-16.924l-23.273-4.233l-23.273-4.233V480.97
			c0,12.853,10.422,23.273,23.273,23.273h403.394c12.854,0,23.273-10.42,23.273-23.273V320.616L457.697,324.848z"/>
	</g>
</g>
<g>
	<g>
		<path d="M488.727,100.848H372.364V77.576V54.303V31.03c0-12.853-10.418-23.273-23.273-23.273H162.909
			c-12.851,0-23.273,10.42-23.273,23.273v23.273v23.273v23.273H23.273C10.422,100.848,0,111.27,0,124.121v124.121
			c0,11.247,8.046,20.885,19.11,22.897l33.548,6.101l11.371,2.067l106.637,19.389v-19.423c0-12.853,10.422-23.273,23.273-23.273
			h124.123c12.854,0,23.273,10.42,23.273,23.273v19.423l106.636-19.389l11.373-2.067l33.548-6.101
			c11.067-2.012,19.108-11.65,19.108-22.897V124.121C512,111.27,501.583,100.848,488.727,100.848z M325.82,77.576v23.273H186.182
			V77.576V54.303H325.82V77.576z"/>
	</g>
</g>
</svg>
