<?xml version="1.0" encoding="utf-8"?>
<svg xmlns="http://www.w3.org/2000/svg" version="1.1" viewBox="-5 -10 90.702 88.325">
  <path d="M 63.445 52.786 C 65.546 52.77 67.46 53.598 68.855 54.958 C 70.253 56.321 71.132 58.22 71.159 60.329 C 71.187 62.438 70.355 64.356 68.991 65.751 C 67.628 67.149 65.73 68.028 63.62 68.056 C 61.511 68.083 59.593 67.251 58.198 65.888 C 56.827 64.548 55.956 62.7 55.898 60.641 C 55.894 60.595 55.89 60.548 55.894 60.501 C 55.874 58.399 56.702 56.485 58.062 55.095 C 59.398 53.724 61.249 52.852 63.308 52.794 C 63.355 52.79 63.402 52.786 63.449 52.786 L 63.445 52.786 Z M 68.374 48.61 C 67.984 48.45 67.581 48.309 67.167 48.184 C 66.714 48.071 66.339 47.708 66.238 47.22 L 65.652 44.513 L 61.238 44.567 L 60.745 47.153 C 60.679 47.63 60.343 48.048 59.855 48.192 C 59.425 48.321 59.007 48.47 58.597 48.641 C 58.199 48.806 57.82 48.989 57.46 49.181 C 57.058 49.431 56.534 49.442 56.109 49.173 L 53.777 47.669 L 50.695 50.829 L 52.199 53.036 C 52.468 53.415 52.515 53.927 52.281 54.364 C 52.062 54.766 51.87 55.169 51.706 55.571 C 51.546 55.962 51.406 56.364 51.281 56.778 C 51.167 57.231 50.804 57.606 50.316 57.708 L 47.609 58.294 L 47.663 62.708 L 50.249 63.2 C 50.726 63.266 51.144 63.602 51.288 64.091 C 51.417 64.52 51.566 64.938 51.738 65.348 C 51.902 65.747 52.085 66.126 52.277 66.485 C 52.527 66.888 52.538 67.411 52.269 67.837 L 50.765 70.169 L 53.925 73.251 L 56.132 71.747 C 56.511 71.477 57.023 71.43 57.46 71.665 C 57.863 71.884 58.265 72.075 58.667 72.239 C 59.058 72.399 59.452 72.54 59.851 72.661 C 60.316 72.766 60.702 73.134 60.804 73.63 L 61.39 76.337 L 65.804 76.282 L 66.296 73.696 C 66.363 73.22 66.699 72.802 67.187 72.657 C 67.617 72.528 68.035 72.38 68.445 72.208 C 68.843 72.044 69.222 71.86 69.581 71.669 C 69.984 71.419 70.507 71.407 70.933 71.677 L 73.265 73.18 L 76.347 70.02 L 74.843 67.813 C 74.574 67.434 74.527 66.923 74.761 66.485 C 74.98 66.083 75.171 65.68 75.335 65.278 C 75.495 64.888 75.636 64.493 75.757 64.095 C 75.863 63.63 76.23 63.243 76.726 63.141 L 79.433 62.555 L 79.378 58.141 L 76.792 57.649 C 76.316 57.583 75.898 57.247 75.753 56.759 C 75.624 56.329 75.476 55.911 75.304 55.501 C 75.14 55.102 74.956 54.723 74.765 54.364 C 74.515 53.962 74.503 53.438 74.773 53.012 L 76.277 50.68 L 73.116 47.598 L 70.909 49.102 C 70.531 49.372 70.019 49.419 69.581 49.184 C 69.179 48.966 68.777 48.774 68.374 48.61 Z M 4.417 65.801 L 4.417 72.672 C 4.417 74.047 6.23 75.411 9.159 76.5 C 12.46 77.731 17.054 78.493 22.163 78.493 C 27.269 78.493 31.867 77.731 35.167 76.5 C 38.097 75.407 39.91 74.047 39.91 72.672 L 39.91 65.801 C 38.886 66.567 37.582 67.243 36.046 67.817 C 32.468 69.153 27.558 69.977 22.163 69.977 C 16.773 69.977 11.858 69.153 8.28 67.817 C 6.749 67.246 5.441 66.567 4.417 65.801 Z M 4.417 50.574 C 4.417 51.949 6.23 53.312 9.159 54.402 C 12.46 55.633 17.054 56.395 22.163 56.395 C 27.269 56.395 31.867 55.633 35.167 54.402 C 38.097 53.309 39.91 51.949 39.91 50.574 L 39.91 43.703 C 38.886 44.469 37.582 45.145 36.046 45.719 C 32.468 47.055 27.558 47.879 22.163 47.879 C 16.773 47.879 11.858 47.055 8.28 45.719 C 6.749 45.148 5.441 44.469 4.417 43.703 L 4.417 50.574 Z M 39.909 54.754 L 39.909 61.625 C 39.909 63 38.097 64.363 35.167 65.453 C 31.866 66.684 27.273 67.445 22.163 67.445 C 17.058 67.445 12.46 66.684 9.159 65.453 C 6.229 64.359 4.417 63 4.417 61.625 L 4.417 54.754 C 5.44 55.52 6.745 56.195 8.28 56.77 C 11.858 58.105 16.768 58.93 22.163 58.93 C 27.558 58.93 32.468 58.105 36.046 56.77 C 37.577 56.199 38.886 55.52 39.909 54.754 Z M 7.589 50.855 C 6.949 50.582 6.648 49.84 6.921 49.199 C 7.195 48.559 7.937 48.258 8.578 48.531 L 9.269 48.828 C 9.91 49.102 10.21 49.844 9.937 50.484 C 9.663 51.125 8.921 51.426 8.281 51.152 L 7.589 50.855 Z M 7.589 61.997 L 8.281 62.293 C 8.921 62.567 9.664 62.266 9.937 61.625 C 10.21 60.985 9.91 60.243 9.269 59.969 L 8.578 59.672 C 7.937 59.399 7.195 59.7 6.921 60.34 C 6.648 60.981 6.949 61.723 7.589 61.997 Z M 7.589 73.138 C 6.949 72.864 6.648 72.122 6.921 71.481 C 7.195 70.841 7.937 70.54 8.578 70.813 L 9.269 71.11 C 9.91 71.384 10.21 72.126 9.937 72.766 C 9.663 73.407 8.921 73.708 8.281 73.434 L 7.589 73.138 Z M 41.312 36.661 L 69.617 36.661 C 73.848 36.661 77.691 34.93 80.48 32.141 C 83.269 29.352 85 25.508 85 21.278 C 85 12.817 78.078 5.895 69.617 5.895 L 65.562 5.895 C 64.945 5.895 64.406 5.446 64.312 4.817 C 63.918 2.215 62.589 -0.081 60.679 -1.718 C 58.796 -3.332 56.351 -4.308 53.671 -4.308 C 52.457 -4.308 51.296 -4.109 50.218 -3.746 C 49.093 -3.363 48.054 -2.804 47.129 -2.097 C 47.109 -2.082 47.086 -2.066 47.066 -2.05 C 46.488 -1.664 45.703 -1.816 45.316 -2.398 C 43.75 -4.734 41.625 -6.664 39.132 -7.996 C 36.738 -9.273 33.996 -10 31.074 -10 C 26.761 -10 22.828 -8.41 19.824 -5.789 C 16.797 -3.148 14.707 0.543 14.117 4.711 C 14.074 5.371 13.527 5.895 12.855 5.895 L 10.382 5.895 C 6.152 5.895 2.308 7.625 -0.481 10.414 C -3.27 13.204 -5 17.051 -5 21.277 C -5 24.516 -3.988 27.527 -2.266 30.008 C -0.625 32.375 1.664 34.266 4.336 35.414 C 5.371 34.625 6.707 33.926 8.281 33.34 C 11.859 32.004 16.77 31.18 22.164 31.18 C 27.559 31.18 32.469 32.004 36.047 33.34 C 38.407 34.219 40.227 35.352 41.313 36.66 L 41.312 36.661 Z M 5.558 37.621 C 6.379 36.934 7.613 36.282 9.16 35.707 C 12.461 34.477 17.054 33.715 22.164 33.715 C 27.269 33.715 31.867 34.477 35.168 35.707 C 37.297 36.5 38.832 37.434 39.516 38.414 C 39.562 38.532 39.629 38.637 39.707 38.731 C 39.84 38.996 39.91 39.266 39.91 39.535 C 39.91 40.91 38.098 42.274 35.168 43.364 C 31.867 44.594 27.273 45.356 22.164 45.356 C 17.058 45.356 12.461 44.594 9.16 43.364 C 6.23 42.27 4.418 40.91 4.418 39.535 C 4.418 38.996 4.695 38.457 5.215 37.938 C 5.347 37.856 5.465 37.75 5.558 37.621 Z" fill-rule="evenodd"/>
</svg>