<?xml version="1.0" encoding="utf-8"?>
<svg xmlns="http://www.w3.org/2000/svg" id="Calque_1" x="0px" y="0px" viewBox="0 0 80.405 43.499" style="enable-background:new 0 0 80 52;">
  <style type="text/css">	.st0{fill:#00D882;}</style>
  <g>
    <g>
      <path class="st0" d="M5.7,30.6H8l1.4,4.2l1.4-4.2h2.3L11,36.3l1.6,4l3.6-9.8h2.7l-5.1,12.6h-2.1l-2.2-5.3l-2.2,5.3H5.2L0.1,30.5   h2.6l3.6,9.8l1.6-4L5.7,30.6z"/>
      <path class="st0" d="M19.8,32.6v-2.4h2.4v2.4H19.8z M19.8,43.1v-9.3h2.4v9.3H19.8z"/>
      <path class="st0" d="M33,43.1h-2.4v-5.2c0-0.7-0.1-1.3-0.4-1.6c-0.3-0.3-0.6-0.5-1.1-0.5c-0.2,0-0.5,0-0.7,0.1   c-0.2,0.1-0.5,0.2-0.7,0.4c-0.2,0.2-0.4,0.4-0.6,0.6c-0.2,0.2-0.3,0.5-0.4,0.8v5.4h-2.4v-9.3h2.1v1.7c0.3-0.6,0.8-1.1,1.5-1.4   c0.7-0.3,1.4-0.5,2.2-0.5c0.6,0,1.1,0.1,1.4,0.3s0.7,0.5,0.9,0.8c0.2,0.3,0.3,0.7,0.4,1.2c0.1,0.4,0.1,0.9,0.1,1.3V43.1z"/>
      <path class="st0" d="M45.6,42.8c0,0-0.1,0-0.2,0.1c-0.1,0-0.3,0.1-0.5,0.2c-0.2,0.1-0.5,0.1-0.7,0.1c-0.3,0-0.5,0.1-0.8,0.1   c-0.4,0-0.7-0.1-1-0.2c-0.3-0.1-0.5-0.3-0.7-0.4c-0.2-0.2-0.4-0.4-0.5-0.6c-0.1-0.2-0.2-0.5-0.2-0.8V34c0-0.3,0-0.5-0.1-0.7   c0-0.2-0.1-0.4-0.2-0.6c-0.1-0.2-0.3-0.3-0.5-0.4c-0.2-0.1-0.4-0.2-0.7-0.2c-0.6,0-1,0.2-1.2,0.5c-0.2,0.4-0.4,0.8-0.4,1.4v0.3   h1.5v1.8h-1.5v7h-2.4v-7h-1.2v-1.8h1.2v-0.8c0-1.1,0.3-2,1-2.6c0.7-0.6,1.6-0.9,2.9-0.9c1.3,0,2.3,0.3,3,1c0.6,0.6,1,1.5,1,2.5   v6.6c0,0.1,0,0.2,0,0.4c0,0.1,0.1,0.2,0.2,0.3c0.1,0.1,0.2,0.2,0.3,0.2c0.1,0.1,0.2,0.1,0.4,0.1c0.1,0,0.2,0,0.3,0   c0.1,0,0.2-0.1,0.3-0.1c0.1,0,0.2-0.1,0.4-0.1L45.6,42.8z"/>
      <path class="st0" d="M50.9,43.3c-0.8,0-1.4-0.1-2-0.4c-0.6-0.3-1.1-0.6-1.5-1.1c-0.4-0.4-0.7-1-1-1.5c-0.2-0.6-0.3-1.2-0.3-1.8   c0-0.7,0.1-1.3,0.3-1.8c0.2-0.6,0.5-1.1,1-1.5c0.4-0.4,0.9-0.8,1.5-1.1c0.6-0.3,1.3-0.4,2-0.4c0.8,0,1.4,0.1,2,0.4   c0.6,0.3,1.1,0.6,1.5,1.1c0.4,0.4,0.7,1,1,1.5c0.2,0.6,0.3,1.2,0.3,1.8c0,0.6-0.1,1.2-0.3,1.8c-0.2,0.6-0.5,1.1-1,1.5   c-0.4,0.4-0.9,0.8-1.5,1.1S51.7,43.3,50.9,43.3z M48.5,38.5c0,0.4,0.1,0.8,0.2,1.1c0.1,0.3,0.3,0.6,0.5,0.9   c0.2,0.2,0.5,0.4,0.8,0.6c0.3,0.1,0.6,0.2,1,0.2c0.3,0,0.7-0.1,1-0.2c0.3-0.1,0.6-0.3,0.8-0.6c0.2-0.2,0.4-0.5,0.5-0.9   c0.1-0.3,0.2-0.7,0.2-1.1c0-0.4-0.1-0.8-0.2-1.1c-0.1-0.3-0.3-0.6-0.5-0.9c-0.2-0.2-0.5-0.4-0.8-0.6c-0.3-0.1-0.6-0.2-1-0.2   c-0.3,0-0.7,0.1-1,0.2c-0.3,0.1-0.6,0.3-0.8,0.6c-0.2,0.2-0.4,0.5-0.5,0.9C48.6,37.7,48.5,38.1,48.5,38.5z"/>
      <path class="st0" d="M62.8,42.7c-0.3,0.1-0.7,0.3-1.2,0.4c-0.5,0.1-0.9,0.2-1.5,0.2c-0.3,0-0.6,0-0.9-0.1   c-0.3-0.1-0.5-0.2-0.8-0.4c-0.2-0.2-0.4-0.4-0.5-0.7c-0.1-0.3-0.2-0.6-0.2-1.1v-5.3h-1.2v-1.8h1.2v-3h2.4v3h2v1.8h-2v4.5   c0,0.3,0.1,0.6,0.3,0.7c0.2,0.1,0.4,0.2,0.6,0.2s0.5,0,0.7-0.1c0.2-0.1,0.4-0.2,0.6-0.2L62.8,42.7z"/>
      <path class="st0" d="M69.6,42.7c-0.3,0.1-0.7,0.3-1.2,0.4c-0.5,0.1-0.9,0.2-1.5,0.2c-0.3,0-0.6,0-0.9-0.1   c-0.3-0.1-0.5-0.2-0.8-0.4c-0.2-0.2-0.4-0.4-0.5-0.7c-0.1-0.3-0.2-0.6-0.2-1.1v-5.3h-1.2v-1.8h1.2v-3H67v3h2v1.8h-2v4.5   c0,0.3,0.1,0.6,0.3,0.7c0.2,0.1,0.4,0.2,0.6,0.2s0.5,0,0.7-0.1c0.2-0.1,0.4-0.2,0.6-0.2L69.6,42.7z"/>
      <path class="st0" d="M75,43.3c-0.7,0-1.4-0.1-2-0.4c-0.6-0.3-1.1-0.6-1.5-1c-0.4-0.4-0.8-0.9-1-1.5c-0.2-0.6-0.3-1.2-0.3-1.8   c0-0.7,0.1-1.3,0.3-1.9c0.2-0.6,0.5-1.1,1-1.5c0.4-0.4,0.9-0.8,1.6-1.1c0.6-0.3,1.3-0.4,2-0.4c0.8,0,1.4,0.1,2,0.4   c0.6,0.3,1.1,0.6,1.5,1c0.4,0.4,0.7,0.9,1,1.5c0.2,0.6,0.3,1.2,0.3,1.8c0,0.2,0,0.3,0,0.4c0,0.1,0,0.3,0,0.4h-7.2   c0,0.4,0.1,0.7,0.3,1c0.1,0.3,0.3,0.5,0.5,0.7c0.2,0.2,0.5,0.4,0.8,0.5c0.3,0.1,0.6,0.2,0.9,0.2c0.5,0,0.9-0.1,1.3-0.3   c0.4-0.2,0.7-0.5,0.9-0.9l2,0.6c-0.3,0.7-0.9,1.3-1.6,1.7C76.9,43.1,76,43.3,75,43.3z M77.4,37.7c-0.1-0.7-0.3-1.3-0.8-1.7   c-0.5-0.4-1-0.6-1.7-0.6c-0.3,0-0.6,0.1-0.9,0.2c-0.3,0.1-0.5,0.3-0.7,0.5c-0.2,0.2-0.4,0.4-0.5,0.7c-0.1,0.3-0.2,0.6-0.2,0.9   H77.4z"/>
    </g>
    <path class="st0" d="M69.3,1.7L58.1,17.3l-4.2,5.9l-0.3,0.4c-0.1,0.1-0.2,0.2-0.3,0.3c-1.2,1.3-3.3,1.6-4.8,0.5  c-0.2-0.1-0.3-0.3-0.5-0.4c-0.1-0.1-0.1-0.1-0.2-0.2c-2.2-2.2-5-3.2-7.9-3.2c-2.9,0-5.9,1.1-8.1,3.4h0c-0.7,0.7-1.7,1.1-2.6,1.1  c-0.6,0-1.2-0.1-1.7-0.4c-0.2-0.1-0.4-0.2-0.6-0.4h0c-0.1-0.1-0.2-0.2-0.3-0.2c-0.1-0.1-0.2-0.1-0.2-0.2c-0.1-0.1-0.1-0.2-0.2-0.2  L26,23.1l-4.2-5.9L10.6,1.7c-0.2-0.3-0.1-0.7,0.1-0.9c0.2-0.2,0.5-0.2,0.8,0l17.3,12.4c1.2,0.9,2.8,1.2,4.3,0.9  c0.8-0.2,1.4-0.9,1.4-1.7c0-0.3-0.1-0.7-0.3-1c-0.9-1.3-1.4-3-1.3-4.7c0.3-3.4,3-6.2,6.3-6.6c4.3-0.5,8,2.9,8,7.1  c0,1.5-0.5,2.9-1.3,4.1c-0.7,1-0.2,2.5,1,2.8c0.4,0.1,0.8,0.1,1.2,0.1c1.1,0,2.2-0.3,3.1-1L68.4,0.7c0.3-0.2,0.7-0.1,0.9,0.2  C69.5,1.1,69.5,1.4,69.3,1.7z"/>
    <g/>
  </g>
</svg>